<svg width="118" height="30" viewBox="0 0 118 30" fill="none" xmlns="http://www.w3.org/2000/svg">
<path d="M8.09238 18.408V23.464H14.6524V22.12H15.9964V19.784H14.6524V18.408H8.09238ZM8.09238 7.208V12.232H14.4284V10.888H15.7724V8.584H14.4284V7.208H8.09238ZM21.9164 16.2V17.992H23.4844V24.808H21.9164V26.536H20.2524V28.264H18.4284V29.736H2.55638V28.072H0.892375V2.632H2.55638V0.967999H18.4284V2.44H20.1564V4.136H21.7564V5.896H23.2284V12.712H21.7564V14.504H20.1244V16.2H21.9164ZM39.0689 20.424H34.0129V21.512H32.8609V23.08H34.0129V24.168H39.0689V20.424ZM45.9809 9.864V28.328H44.7329V29.736H29.8209V28.488H28.3809V27.112H27.0049V25.576H25.7569V19.144H27.0049V17.608H28.3809V16.232H29.8209V14.984H39.0689V12.968H28.6369V11.56H27.3249V8.2H28.6369V6.824H43.1009V8.232H44.5089V9.864H45.9809ZM57.9224 17.896H56.1624V28.456H54.8824V29.736H49.8264V28.456H48.5464V8.008H49.8264V6.824H54.7864V8.008H56.0664V9.928H57.2184V8.008H58.4664V6.824H63.4904V8.072H64.7384V12.36H63.3944V13.672H61.5384V15.048H59.7144V16.424H57.9224V17.896ZM74.7719 23.304H79.1559V15.048H74.7719V16.36H73.5559V21.992H74.7719V23.304ZM84.9159 28.456V29.736H70.4839V28.264H69.0119V26.696H67.6359V24.936H66.3239V13.416H67.6359V11.656H69.0119V10.088H70.4839V8.616H78.9639V1.864H80.3399V0.584H84.8519V1.864H86.1959V28.456H84.9159ZM90.2364 29.736V28.456H88.9564V10.792H90.2364V9.512H94.9724V10.792H96.2844V28.456H94.9724V29.736H90.2364ZM95.0364 1.864H96.3164V6.408H95.0364V7.688H90.2044V6.408H88.9244V1.864H90.2044V0.584H95.0364V1.864ZM103.718 28.424H102.054V27.016H100.486V25.48H99.0136V11.08H100.486V9.544H102.054V8.168H103.718V6.824H116.518V8.2H117.862V12.072H116.518V13.32H107.878V14.632H106.31V21.928H107.878V23.24H116.454V24.552H117.862V28.488H116.454V29.736H103.718V28.424Z" fill="#222222"/>
</svg>
